<svg width="65" height="66" viewBox="0 0 65 66" fill="none" xmlns="http://www.w3.org/2000/svg">
<g clip-path="url(#clip0_4732_13411)">
<path d="M9.89758 65.8225C7.5476 65.8225 5.27479 64.8861 3.60557 63.2169C1.83504 61.4473 0.889177 58.9979 1.01037 56.4974C1.13109 53.9969 2.30939 51.6507 4.24277 50.0591L30.6852 26.2687C28.2756 19.7736 29.9533 12.397 35.058 7.2918C39.5085 2.83991 45.7271 0.941564 51.6972 2.21407C52.0447 2.28887 52.324 2.54735 52.4249 2.88725C52.5257 3.22811 52.432 3.59736 52.1806 3.84826L44.0092 12.0192C43.8955 12.1328 43.8454 12.3222 43.8714 12.5371L44.9456 20.8245C45.0118 21.3386 45.4838 21.8102 45.9975 21.8764L54.292 22.953C54.5017 22.9747 54.6896 22.9264 54.8042 22.8128L62.9747 14.6419C63.2251 14.39 63.5944 14.2972 63.9352 14.3976C64.2761 14.4989 64.5345 14.7782 64.6084 15.1257C65.8795 21.0925 63.9811 27.313 59.5302 31.7649C54.4255 36.8682 47.0494 38.5459 40.5543 36.1372L16.7354 62.6119C15.1727 64.5121 12.8265 65.6909 10.326 65.8121C10.183 65.8187 10.0401 65.8225 9.89758 65.8225ZM32.3488 27.3802L5.50723 51.5286C3.96299 52.8011 3.04174 54.636 2.94706 56.5911C2.85238 58.5463 3.59231 60.4617 4.97654 61.8459C6.36125 63.2302 8.27712 63.9791 10.2323 63.8749C12.1874 63.7802 14.0219 62.859 15.2655 61.347L39.4754 34.4377C39.7353 34.06 40.2196 33.9094 40.6418 34.0874C46.5636 36.5643 53.4389 35.1138 58.1592 30.3939C61.6865 26.8661 63.4249 22.1056 62.9912 17.3677L56.1742 24.1847C55.6345 24.7235 54.8615 24.9697 54.0505 24.8769L45.7489 23.7994C44.3495 23.6195 43.203 22.472 43.0226 21.0735L41.9475 12.7795C41.8481 11.9605 42.0999 11.186 42.6382 10.6482L49.4547 3.83217C44.7155 3.39285 39.9568 5.13498 36.429 8.66278C31.7092 13.3836 30.2587 20.2593 32.7346 26.1806C32.9149 26.6114 32.7625 27.1094 32.3719 27.3651C32.3644 27.3708 32.3563 27.3755 32.3488 27.3802Z" fill="#003594"/>
<path d="M9.85929 61.4774C8.65392 61.4774 7.52052 61.0078 6.66834 60.1547C4.90906 58.3954 4.90906 55.533 6.66834 53.7737C7.52052 52.9206 8.65392 52.4509 9.85929 52.4509C11.0647 52.4509 12.1981 52.9206 13.0502 53.7737C14.8095 55.533 14.8095 58.3954 13.0502 60.1547C12.1981 61.0078 11.0647 61.4774 9.85929 61.4774ZM9.85929 54.3901C9.17186 54.3901 8.52562 54.6581 8.03941 55.1448C7.0362 56.1485 7.0362 57.7799 8.03941 58.7836C9.01184 59.757 10.7067 59.757 11.6792 58.7836C12.6824 57.7799 12.6824 56.1485 11.6792 55.1448C11.193 54.6581 10.5467 54.3901 9.85929 54.3901Z" fill="#003594"/>
<path d="M25.2071 42.5847C24.959 42.5847 24.711 42.49 24.5216 42.3006C24.1429 41.9219 24.1429 41.3084 24.5216 40.9297L40.1023 25.349C40.481 24.9703 41.0945 24.9703 41.4732 25.349C41.852 25.7277 41.852 26.3412 41.4732 26.72L25.8926 42.3006C25.7032 42.49 25.4551 42.5847 25.2071 42.5847Z" fill="#003594"/>
</g>
<defs>
<clipPath id="clip0_4732_13411">
<rect width="65" height="65" fill="white" transform="translate(0 0.825928)"/>
</clipPath>
</defs>
</svg>
