<svg width="65" height="65" viewBox="0 0 65 65" fill="none" xmlns="http://www.w3.org/2000/svg">
<path d="M57.8 16.9151L33 1.4151L8.2 16.9151V16.9575V17.0583V17.16V17.2626V17.3661V17.4705V17.5758V17.6821V17.7892V17.8973V18.0063V18.1162V18.2271V18.3389V18.4516V18.5652V18.6798V18.7954V18.9119V19.0293V19.1477V19.2671V19.3874V19.5087V19.631V19.7542V19.8784V20.0035V20.1297V20.2568V20.3849V20.514V20.6441V20.7752V20.9073V21.0404V21.1745V21.3096V21.4457V21.5828V21.7209V21.8601V22.0002V22.1414V22.2836V22.4269V22.5712V22.7165V22.8629V23.0103V23.1587V23.3082V23.4588V23.6104V23.763V23.9168V24.0715V24.2274V24.3843V24.5423V24.7014V24.8615V25.0228V25.1851V25.3485V25.513V25.6786V25.8453V26.0131V26.182V26.352V26.5231V26.6954V26.8687V27.0432V27.2188C8.2 41.8506 14.5075 50.9824 20.7902 56.4797C23.9435 59.2388 27.0994 61.0882 29.4652 62.2465C30.6469 62.825 31.6282 63.2295 32.3085 63.4877C32.5952 63.5965 32.8282 63.6792 33 63.7379C33.1718 63.6792 33.4048 63.5965 33.6915 63.4877C34.3718 63.2295 35.3531 62.825 36.5348 62.2465C38.9006 61.0882 42.0565 59.2388 45.2098 56.4797C51.4925 50.9824 57.8 41.8506 57.8 27.2188V27.0432V26.8687V26.6954V26.5231V26.352V26.182V26.0131V25.8453V25.6786V25.513V25.3485V25.1851V25.0228V24.8615V24.7014V24.5423V24.3843V24.2274V24.0715V23.9168V23.763V23.6104V23.4588V23.3082V23.1587V23.0103V22.8629V22.7165V22.5712V22.4269V22.2836V22.1414V22.0002V21.8601V21.7209V21.5828V21.4457V21.3096V21.1745V21.0404V20.9073V20.7752V20.6441V20.514V20.3849V20.2568V20.1297V20.0035V19.8784V19.7542V19.631V19.5087V19.3874V19.2671V19.1477V19.0293V18.9119V18.7954V18.6798V18.5652V18.4516V18.3389V18.2271V18.1162V18.0063V17.8973V17.7892V17.6821V17.5758V17.4705V17.3661V17.2626V17.16V17.0583V16.9575V16.9151Z" stroke="#003594" stroke-width="2.4"/>
<path d="M26.5 30.875L32.5937 36.5625L41.125 28.0313" stroke="#003594" stroke-width="2.4"/>
<circle cx="33.4062" cy="32.9062" r="14.6438" stroke="#003594" stroke-width="2.4"/>
</svg>
