<svg width="100" height="100" viewBox="0 0 100 100" fill="none" xmlns="http://www.w3.org/2000/svg">
<path d="M50 100C77.6142 100 100 77.6142 100 50C100 22.3858 77.6142 0 50 0C22.3858 0 0 22.3858 0 50C0 77.6142 22.3858 100 50 100Z" fill="#2D2E39"/>
<path d="M28.856 61H27.6309V56.728H22.9717V61H21.7529V51.7578H22.9717V55.7314H27.6309V51.7578H28.856V61ZM35.0767 61C35.009 60.8646 34.9539 60.6234 34.9116 60.2764C34.3657 60.8434 33.714 61.127 32.9565 61.127C32.2795 61.127 31.723 60.9365 31.2871 60.5557C30.8555 60.1706 30.6396 59.6839 30.6396 59.0957C30.6396 58.3805 30.9105 57.8262 31.4521 57.4326C31.998 57.0348 32.764 56.8359 33.75 56.8359H34.8926V56.2964C34.8926 55.8859 34.7699 55.5601 34.5244 55.3188C34.279 55.0734 33.9172 54.9507 33.439 54.9507C33.02 54.9507 32.6688 55.0565 32.3853 55.2681C32.1017 55.4797 31.96 55.7357 31.96 56.0361H30.7793C30.7793 55.6934 30.8999 55.3633 31.1411 55.0459C31.3866 54.7243 31.7166 54.4704 32.1313 54.2842C32.5503 54.098 33.0094 54.0049 33.5088 54.0049C34.3001 54.0049 34.9201 54.2038 35.3687 54.6016C35.8172 54.9951 36.05 55.5389 36.0669 56.2329V59.394C36.0669 60.0246 36.1473 60.526 36.3081 60.8984V61H35.0767ZM33.1279 60.105C33.4961 60.105 33.8452 60.0098 34.1753 59.8193C34.5054 59.6289 34.7445 59.3813 34.8926 59.0767V57.6675H33.9722C32.5334 57.6675 31.814 58.0885 31.814 58.9307C31.814 59.2988 31.9367 59.5866 32.1821 59.7939C32.4276 60.0013 32.7428 60.105 33.1279 60.105ZM38.0156 61V54.1318H40.6943C41.6084 54.1318 42.3088 54.2926 42.7954 54.6143C43.2863 54.9316 43.5317 55.3993 43.5317 56.0171C43.5317 56.3345 43.4365 56.6222 43.2461 56.8804C43.0557 57.1343 42.7743 57.3289 42.4019 57.4644C42.8166 57.5617 43.1488 57.7521 43.3984 58.0356C43.6523 58.3192 43.7793 58.6577 43.7793 59.0513C43.7793 59.6818 43.5465 60.1642 43.0811 60.4985C42.6198 60.8328 41.966 61 41.1196 61H38.0156ZM39.1899 57.9849V60.0542H41.1323C41.6232 60.0542 41.9893 59.9632 42.2305 59.7812C42.4759 59.5993 42.5986 59.3433 42.5986 59.0132C42.5986 58.3276 42.0951 57.9849 41.0879 57.9849H39.1899ZM39.1899 57.0454H40.707C41.8073 57.0454 42.3574 56.7238 42.3574 56.0806C42.3574 55.4373 41.8369 55.1051 40.7959 55.084H39.1899V57.0454ZM48.1846 61.127C47.2536 61.127 46.4961 60.8223 45.9121 60.2129C45.3281 59.5993 45.0361 58.7804 45.0361 57.7563V57.5405C45.0361 56.8592 45.1652 56.252 45.4233 55.7188C45.6857 55.1813 46.0496 54.7624 46.5151 54.4619C46.9849 54.1572 47.4927 54.0049 48.0386 54.0049C48.9315 54.0049 49.6255 54.299 50.1206 54.8872C50.6157 55.4754 50.8633 56.3175 50.8633 57.4136V57.9023H46.2104C46.2274 58.5794 46.4242 59.1274 46.8008 59.5464C47.1816 59.9611 47.6641 60.1685 48.248 60.1685C48.6628 60.1685 49.014 60.0838 49.3018 59.9146C49.5895 59.7453 49.8413 59.521 50.0571 59.2417L50.7744 59.8003C50.1989 60.6847 49.3356 61.127 48.1846 61.127ZM48.0386 54.9697C47.5646 54.9697 47.1668 55.1432 46.8452 55.4902C46.5236 55.833 46.3247 56.3154 46.2485 56.9375H49.689V56.8486C49.6551 56.252 49.4943 55.7907 49.2065 55.4648C48.9188 55.1348 48.5295 54.9697 48.0386 54.9697ZM52.1709 60.0415L52.5771 59.54C53.0342 58.9476 53.2944 58.0589 53.3579 56.874L53.4658 54.1318H57.8901V60.0415H58.7725V63.0186H57.5981V61H52.8057V63.0186H51.6313L51.6377 60.0415H52.1709ZM53.561 60.0415H56.7158V55.2173H54.6021L54.5322 56.855C54.4603 58.2218 54.1366 59.284 53.561 60.0415ZM64.5171 54.1318H65.6914V61H64.5171V55.9917L61.3496 61H60.1753V54.1318H61.3496V59.1465L64.5171 54.1318ZM72.6802 55.084H70.376V61H69.2017V55.084H66.9419V54.1318H72.6802V55.084ZM76.165 61.127C75.234 61.127 74.4766 60.8223 73.8926 60.2129C73.3086 59.5993 73.0166 58.7804 73.0166 57.7563V57.5405C73.0166 56.8592 73.1457 56.252 73.4038 55.7188C73.6662 55.1813 74.0301 54.7624 74.4956 54.4619C74.9653 54.1572 75.4731 54.0049 76.019 54.0049C76.9119 54.0049 77.606 54.299 78.1011 54.8872C78.5962 55.4754 78.8438 56.3175 78.8438 57.4136V57.9023H74.1909C74.2078 58.5794 74.4046 59.1274 74.7812 59.5464C75.1621 59.9611 75.6445 60.1685 76.2285 60.1685C76.6432 60.1685 76.9945 60.0838 77.2822 59.9146C77.57 59.7453 77.8218 59.521 78.0376 59.2417L78.7549 59.8003C78.1794 60.6847 77.3161 61.127 76.165 61.127ZM76.019 54.9697C75.5451 54.9697 75.1473 55.1432 74.8257 55.4902C74.5041 55.833 74.3052 56.3154 74.229 56.9375H77.6694V56.8486C77.6356 56.252 77.4748 55.7907 77.187 55.4648C76.8993 55.1348 76.5099 54.9697 76.019 54.9697ZM19.9438 74H18.7695V71.0674H15.6147V74H14.4341V67.1318H15.6147V70.1089H18.7695V67.1318H19.9438V74ZM26.0757 74C26.008 73.8646 25.953 73.6234 25.9106 73.2764C25.3647 73.8434 24.7131 74.127 23.9556 74.127C23.2785 74.127 22.722 73.9365 22.2861 73.5557C21.8545 73.1706 21.6387 72.6839 21.6387 72.0957C21.6387 71.3805 21.9095 70.8262 22.4512 70.4326C22.9971 70.0348 23.763 69.8359 24.749 69.8359H25.8916V69.2964C25.8916 68.8859 25.7689 68.5601 25.5234 68.3188C25.278 68.0734 24.9162 67.9507 24.438 67.9507C24.019 67.9507 23.6678 68.0565 23.3843 68.2681C23.1007 68.4797 22.959 68.7357 22.959 69.0361H21.7783C21.7783 68.6934 21.8989 68.3633 22.1401 68.0459C22.3856 67.7243 22.7157 67.4704 23.1304 67.2842C23.5493 67.098 24.0085 67.0049 24.5078 67.0049C25.2992 67.0049 25.9191 67.2038 26.3677 67.6016C26.8162 67.9951 27.049 68.5389 27.0659 69.2329V72.394C27.0659 73.0246 27.1463 73.526 27.3071 73.8984V74H26.0757ZM24.127 73.105C24.4951 73.105 24.8442 73.0098 25.1743 72.8193C25.5044 72.6289 25.7435 72.3813 25.8916 72.0767V70.6675H24.9712C23.5324 70.6675 22.813 71.0885 22.813 71.9307C22.813 72.2988 22.9357 72.5866 23.1812 72.7939C23.4266 73.0013 23.7419 73.105 24.127 73.105ZM34.2705 71.0737H33.4136V74H32.2329V67.1318H33.4136V70.0391H34.1816L36.4922 67.1318H37.9141L35.1973 70.4326L38.1426 74H36.6509L34.2705 71.0737ZM43.3921 74C43.3244 73.8646 43.2694 73.6234 43.2271 73.2764C42.6812 73.8434 42.0295 74.127 41.272 74.127C40.5949 74.127 40.0384 73.9365 39.6025 73.5557C39.1709 73.1706 38.9551 72.6839 38.9551 72.0957C38.9551 71.3805 39.2259 70.8262 39.7676 70.4326C40.3135 70.0348 41.0794 69.8359 42.0654 69.8359H43.208V69.2964C43.208 68.8859 43.0853 68.5601 42.8398 68.3188C42.5944 68.0734 42.2326 67.9507 41.7544 67.9507C41.3354 67.9507 40.9842 68.0565 40.7007 68.2681C40.4172 68.4797 40.2754 68.7357 40.2754 69.0361H39.0947C39.0947 68.6934 39.2153 68.3633 39.4565 68.0459C39.702 67.7243 40.0321 67.4704 40.4468 67.2842C40.8657 67.098 41.3249 67.0049 41.8242 67.0049C42.6156 67.0049 43.2355 67.2038 43.6841 67.6016C44.1326 67.9951 44.3654 68.5389 44.3823 69.2329V72.394C44.3823 73.0246 44.4627 73.526 44.6235 73.8984V74H43.3921ZM41.4434 73.105C41.8115 73.105 42.1606 73.0098 42.4907 72.8193C42.8208 72.6289 43.0599 72.3813 43.208 72.0767V70.6675H42.2876C40.8488 70.6675 40.1294 71.0885 40.1294 71.9307C40.1294 72.2988 40.2521 72.5866 40.4976 72.7939C40.743 73.0013 41.0583 73.105 41.4434 73.105ZM52.0249 70.6421C52.0249 71.6873 51.7858 72.5295 51.3076 73.1685C50.8294 73.8075 50.182 74.127 49.3652 74.127C48.5316 74.127 47.8757 73.8625 47.3975 73.3335V76.6406H46.2231V67.1318H47.2959L47.353 67.8936C47.8312 67.3011 48.4956 67.0049 49.3462 67.0049C50.1714 67.0049 50.8231 67.3159 51.3013 67.938C51.7837 68.5601 52.0249 69.4255 52.0249 70.5342V70.6421ZM50.8506 70.5088C50.8506 69.7344 50.6855 69.1229 50.3555 68.6743C50.0254 68.2257 49.5726 68.0015 48.9971 68.0015C48.2861 68.0015 47.7529 68.3167 47.3975 68.9473V72.229C47.7487 72.8553 48.2861 73.1685 49.0098 73.1685C49.5726 73.1685 50.019 72.9463 50.3491 72.502C50.6834 72.0534 50.8506 71.389 50.8506 70.5088ZM58.1187 68.084H55.8145V74H54.6401V68.084H52.3804V67.1318H58.1187V68.084ZM63.7046 67.1318H64.8789V74H63.7046V68.9917L60.5371 74H59.3628V67.1318H60.5371V72.1465L63.7046 67.1318ZM72.3755 74H71.2012V71.0674H68.0464V74H66.8657V67.1318H68.0464V70.1089H71.2012V67.1318H72.3755V74ZM76.4062 71.0737H75.5493V74H74.3687V67.1318H75.5493V70.0391H76.3174L78.6279 67.1318H80.0498L77.333 70.4326L80.2783 74H78.7866L76.4062 71.0737ZM83.5347 72.2798L85.1343 67.1318H86.3911L83.6299 75.0601C83.2025 76.2026 82.5233 76.7739 81.5923 76.7739L81.3701 76.7549L80.9321 76.6724V75.7202L81.2495 75.7456C81.6473 75.7456 81.9562 75.6652 82.1763 75.5044C82.4006 75.3436 82.5846 75.0495 82.7285 74.6221L82.9888 73.9238L80.5386 67.1318H81.8208L83.5347 72.2798Z" fill="white"/>
<path fill-rule="evenodd" clip-rule="evenodd" d="M38.9667 21.7141C38.5637 22.2134 38.3439 22.8284 38.3396 23.4861C38.2863 23.6848 38.2372 23.8877 38.1931 24.0939C37.8191 25.8459 37.8777 27.4887 38.5441 28.8709C39.1233 30.0723 40.1454 31.0429 41.4599 31.8091C40.7892 32.6877 40.8503 33.8301 41.4978 35.011C41.5326 35.0757 41.5752 35.1544 41.6352 35.2651C42.1405 36.1964 42.7137 37.2322 43.2732 38.209C43.9142 39.328 44.4408 40.1995 44.814 40.742C45.2089 41.3155 46.0674 41.948 47.2757 42.6543C47.6967 42.9005 48.1362 43.1404 48.5742 43.3674C48.7701 43.469 48.9473 43.5584 49.0987 43.6333L50.6487 46.4579C50.925 46.9614 51.5608 47.1476 52.0685 46.8736L63.4534 40.7305C63.9611 40.4565 64.1488 39.826 63.8725 39.3225L62.3127 36.4799C62.3274 36.0342 62.3367 35.4878 62.3313 34.9114C62.3216 33.8672 62.2654 33.0595 62.1376 32.5656C61.9382 31.7973 61.3338 30.537 60.4491 28.9315C59.9167 27.9653 59.3559 27.0093 59.0404 26.4935C58.2788 25.1041 56.5376 24.6012 55.106 25.3737C54.8283 25.5236 54.5819 25.7153 54.3728 25.9403C53.9148 25.448 53.3122 25.1302 52.6734 25.0217C52.7382 23.9058 52.558 22.8705 52.0458 22.0099C51.5168 21.1212 50.652 20.4499 49.5895 19.9628C49.2199 19.7934 48.852 19.6587 48.5024 19.5551C48.2917 19.4926 48.1329 19.4543 48.0427 19.4364L47.9752 19.772C48.0553 19.7879 48.2037 19.8238 48.4036 19.883C48.7382 19.9821 49.0909 20.1112 49.4447 20.2734C50.449 20.7339 51.2604 21.3637 51.7486 22.1839C52.2184 22.9732 52.388 23.937 52.3299 24.9838C51.8192 24.9578 51.298 25.0654 50.8192 25.3238C50.4688 25.5128 50.1727 25.7473 49.963 26.0215C48.8605 25.0643 47.894 24.9536 46.7075 25.5939C46.4592 25.7279 46.2359 25.8953 46.0421 26.09L43.8925 22.1727C43.1051 20.7378 41.3162 20.1827 39.8989 20.9474C39.5341 21.1443 39.2269 21.3978 38.9843 21.6926L38.9783 21.6897C38.9749 21.6966 38.9711 21.7047 38.9667 21.7141ZM52.1757 26.1441C51.904 26.1452 51.6313 26.2102 51.38 26.3458C50.9846 26.5592 50.7765 26.8194 50.8026 27.0307L51.0304 28.879L49.782 27.4881C48.7028 26.2857 48.1655 26.1318 47.2683 26.6159C46.9319 26.7974 46.6743 27.0823 46.5233 27.4312L46.0467 28.5328L42.8619 22.7288C42.3802 21.8511 41.3002 21.5159 40.4598 21.9694C39.5192 22.4769 39.2084 23.5526 39.8489 24.6575C40.4139 25.6322 42.9647 29.5245 47.4759 36.2941C47.6545 36.5621 47.5802 36.923 47.3099 37.1002C47.0396 37.2773 46.6756 37.2036 46.497 36.9356C45.4937 35.43 44.5877 34.0674 43.7788 32.8472C43.7661 32.843 43.7534 32.8388 43.7406 32.8345C43.347 32.703 42.9411 32.5459 42.5337 32.3614C42.0103 32.8917 42.0557 33.5928 42.5305 34.4587C42.5669 34.5262 42.609 34.6041 42.6685 34.7138C43.1699 35.638 43.7392 36.6666 44.2935 37.6343C44.9194 38.727 45.4333 39.5775 45.7832 40.0861C46.0464 40.4684 46.8131 41.0332 47.8716 41.652C48.2105 41.8501 48.5636 42.045 48.9184 42.2321C49.0112 42.0788 49.1452 41.9473 49.315 41.8556L60.6999 35.7125C60.8458 35.6338 61.0023 35.593 61.1579 35.5869C61.1599 35.3731 61.1601 35.1498 61.158 34.9221C61.1492 33.9724 61.0973 33.2267 61.0011 32.8553C60.8351 32.2154 60.255 31.0057 59.4195 29.4895C58.8964 28.5403 58.3441 27.5988 58.0234 27.0732C57.5588 26.2263 56.5309 25.9295 55.6668 26.3957C55.3303 26.5773 55.0724 26.8627 54.9213 27.2119L54.4446 28.3134L53.7817 27.1054C53.5056 26.6022 53.0328 26.2773 52.5212 26.1771C52.5146 26.2091 52.5079 26.2409 52.501 26.2725C52.4543 26.4855 52.4115 26.6419 52.3836 26.7289L52.0547 26.6254C52.0794 26.5481 52.1194 26.4019 52.1637 26.1998C52.1678 26.1813 52.1718 26.1627 52.1757 26.1441ZM43.4654 32.3743C43.3651 32.2229 43.2664 32.0737 43.1693 31.927C43.0444 31.9874 42.9319 32.0513 42.8312 32.1186C43.044 32.2114 43.256 32.2965 43.4654 32.3743ZM42.5224 30.9484C42.1889 31.1239 41.9126 31.3246 41.6906 31.5463C40.4036 30.8064 39.4089 29.8712 38.8555 28.7233C38.2598 27.4878 38.1784 26.0126 38.4779 24.4273C38.5588 24.6975 38.6761 24.969 38.8316 25.2374C39.2145 25.898 40.4424 27.7979 42.5224 30.9484ZM49.9901 42.8158C50.0578 42.8892 50.1048 42.9782 50.1278 43.0734L51.6191 45.7912L62.7817 39.768L61.1498 36.7941L49.9901 42.8158Z" fill="white"/>
<path d="M36.5147 25.2859L36.8333 25.4174C36.8019 25.4922 36.7492 25.6344 36.6873 25.8319C36.5837 26.1627 36.4951 26.525 36.4336 26.9066C36.2589 27.9901 36.3336 29.0091 36.7479 29.8684C37.1622 30.7278 37.9151 31.4252 38.8751 31.9707C39.2133 32.1629 39.5533 32.322 39.8779 32.4497C40.0718 32.526 40.2165 32.5746 40.295 32.5973L40.1982 32.9258C40.1099 32.9002 39.9551 32.8482 39.7507 32.7678C39.4115 32.6344 39.0569 32.4684 38.7036 32.2677C37.6879 31.6906 36.8854 30.9472 36.4365 30.0161C35.9876 29.085 35.908 27.9988 36.0928 26.8526C36.1571 26.4539 36.2495 26.0759 36.3577 25.7304C36.423 25.5222 36.4794 25.3701 36.5147 25.2859Z" fill="white"/>
<path d="M55.1093 25.2925L54.7804 25.189C54.8051 25.1117 54.8452 24.9655 54.8894 24.7634C54.9636 24.425 55.02 24.0564 55.0478 23.6709C55.1265 22.5764 54.9626 21.5677 54.4743 20.7475C53.9861 19.9273 53.1748 19.2975 52.1704 18.837C51.8166 18.6748 51.4639 18.5457 51.1293 18.4466C50.9295 18.3873 50.781 18.3515 50.7009 18.3356L50.7684 18C50.8587 18.0179 51.0174 18.0562 51.2281 18.1187C51.5777 18.2223 51.9456 18.357 52.3152 18.5264C53.3777 19.0135 54.2425 19.6848 54.7715 20.5735C55.3005 21.4623 55.4753 22.5374 55.392 23.6952C55.363 24.098 55.3041 24.4825 55.2267 24.8361C55.18 25.0491 55.1372 25.2055 55.1093 25.2925Z" fill="white"/>
</svg>
