<svg width="100" height="100" viewBox="0 0 100 100" fill="none" xmlns="http://www.w3.org/2000/svg">
<path d="M50 100C77.6142 100 100 77.6142 100 50C100 22.3858 77.6142 0 50 0C22.3858 0 0 22.3858 0 50C0 77.6142 22.3858 100 50 100Z" fill="#2D2E39"/>
<path d="M29.6304 61.7578V71H28.4116V62.7607H25.0981L24.9331 66.4233C24.8696 67.6506 24.7427 68.5731 24.5522 69.1909C24.366 69.8088 24.091 70.2637 23.7271 70.5557C23.3631 70.8434 22.8765 70.9915 22.2671 71H21.8672V70.0034L22.1211 69.9907C22.5146 69.9611 22.8172 69.8341 23.0288 69.6099C23.2404 69.3813 23.4012 69.0195 23.5112 68.5244C23.6213 68.0293 23.6995 67.2676 23.7461 66.2393L23.9365 61.7578H29.6304ZM36.105 64.1318H37.2793V71H36.105V65.9917L32.9375 71H31.7632V64.1318H32.9375V69.1465L36.105 64.1318ZM41.9194 70.1685C42.3384 70.1685 42.7044 70.0415 43.0176 69.7876C43.3307 69.5337 43.5042 69.2163 43.5381 68.8354H44.6489C44.6278 69.229 44.4924 69.6035 44.2427 69.959C43.993 70.3145 43.6587 70.598 43.2397 70.8096C42.825 71.0212 42.3849 71.127 41.9194 71.127C40.9842 71.127 40.2394 70.8159 39.6851 70.1938C39.1349 69.5675 38.8599 68.7127 38.8599 67.6294V67.4326C38.8599 66.764 38.9826 66.1694 39.228 65.6489C39.4735 65.1284 39.8247 64.7243 40.2817 64.4365C40.743 64.1488 41.2868 64.0049 41.9131 64.0049C42.6833 64.0049 43.3223 64.2355 43.8301 64.6968C44.3421 65.158 44.6151 65.7568 44.6489 66.4932H43.5381C43.5042 66.0488 43.335 65.6849 43.0303 65.4014C42.7298 65.1136 42.3574 64.9697 41.9131 64.9697C41.3164 64.9697 40.853 65.1855 40.5229 65.6172C40.1971 66.0446 40.0342 66.6646 40.0342 67.4771V67.6992C40.0342 68.4906 40.1971 69.0999 40.5229 69.5273C40.8488 69.9548 41.3143 70.1685 41.9194 70.1685ZM51.0728 65.084H48.7686V71H47.5942V65.084H45.3345V64.1318H51.0728V65.084ZM56.354 71C56.2863 70.8646 56.2313 70.6234 56.189 70.2764C55.6431 70.8434 54.9914 71.127 54.2339 71.127C53.5568 71.127 53.0003 70.9365 52.5645 70.5557C52.1328 70.1706 51.917 69.6839 51.917 69.0957C51.917 68.3805 52.1878 67.8262 52.7295 67.4326C53.2754 67.0348 54.0413 66.8359 55.0273 66.8359H56.1699V66.2964C56.1699 65.8859 56.0472 65.5601 55.8018 65.3188C55.5563 65.0734 55.1945 64.9507 54.7163 64.9507C54.2974 64.9507 53.9461 65.0565 53.6626 65.2681C53.3791 65.4797 53.2373 65.7357 53.2373 66.0361H52.0566C52.0566 65.6934 52.1772 65.3633 52.4185 65.0459C52.6639 64.7243 52.994 64.4704 53.4087 64.2842C53.8276 64.098 54.2868 64.0049 54.7861 64.0049C55.5775 64.0049 56.1974 64.2038 56.646 64.6016C57.0946 64.9951 57.3273 65.5389 57.3442 66.2329V69.394C57.3442 70.0246 57.4246 70.526 57.5854 70.8984V71H56.354ZM54.4053 70.105C54.7734 70.105 55.1226 70.0098 55.4526 69.8193C55.7827 69.6289 56.0218 69.3813 56.1699 69.0767V67.6675H55.2495C53.8107 67.6675 53.0913 68.0885 53.0913 68.9307C53.0913 69.2988 53.214 69.5866 53.4595 69.7939C53.7049 70.0013 54.0202 70.105 54.4053 70.105ZM63.6284 64.1318H64.8027V71H63.6284V65.9917L60.4609 71H59.2866V64.1318H60.4609V69.1465L63.6284 64.1318ZM63.9458 61.6309C63.9458 62.1429 63.7702 62.5555 63.4189 62.8687C63.0719 63.1776 62.6149 63.332 62.0479 63.332C61.4808 63.332 61.0216 63.1755 60.6704 62.8623C60.3192 62.5492 60.1436 62.1387 60.1436 61.6309H61.1021C61.1021 61.9271 61.1825 62.1598 61.3433 62.3291C61.5041 62.4941 61.7389 62.5767 62.0479 62.5767C62.3441 62.5767 62.5747 62.4941 62.7397 62.3291C62.909 62.1641 62.9937 61.9313 62.9937 61.6309H63.9458ZM71.7915 65.084H69.4873V71H68.313V65.084H66.0532V64.1318H71.7915V65.084ZM75.2764 71.127C74.3454 71.127 73.5879 70.8223 73.0039 70.2129C72.4199 69.5993 72.1279 68.7804 72.1279 67.7563V67.5405C72.1279 66.8592 72.257 66.252 72.5151 65.7188C72.7775 65.1813 73.1414 64.7624 73.6069 64.4619C74.0767 64.1572 74.5845 64.0049 75.1304 64.0049C76.0233 64.0049 76.7173 64.299 77.2124 64.8872C77.7075 65.4754 77.9551 66.3175 77.9551 67.4136V67.9023H73.3022C73.3192 68.5794 73.516 69.1274 73.8926 69.5464C74.2734 69.9611 74.7559 70.1685 75.3398 70.1685C75.7546 70.1685 76.1058 70.0838 76.3936 69.9146C76.6813 69.7453 76.9331 69.521 77.1489 69.2417L77.8662 69.8003C77.2907 70.6847 76.4274 71.127 75.2764 71.127ZM75.1304 64.9697C74.6564 64.9697 74.2586 65.1432 73.937 65.4902C73.6154 65.833 73.4165 66.3154 73.3403 66.9375H76.7808V66.8486C76.7469 66.252 76.5861 65.7907 76.2983 65.4648C76.0106 65.1348 75.6213 64.9697 75.1304 64.9697Z" fill="white"/>
<path fill-rule="evenodd" clip-rule="evenodd" d="M46.9659 25.0532C49.6622 25.3733 51.808 27.5005 52.1589 30.1881H64.1159L62.8708 28.8561C62.6002 28.5662 62.616 28.1119 62.9052 27.8414C63.1937 27.5715 63.648 27.5859 63.9193 27.8751L66.1799 30.2936C66.3938 30.4178 66.5445 30.6395 66.5445 30.9051C66.5445 30.9102 66.543 30.9149 66.5417 30.9193C66.5403 30.9235 66.5391 30.9274 66.5395 30.9309C66.5395 30.9384 66.5402 30.9456 66.5409 30.9528C66.5416 30.96 66.5423 30.9672 66.5423 30.9747C66.5418 31.0061 66.5343 31.0365 66.5266 31.0673C66.5236 31.0794 66.5206 31.0915 66.5179 31.1039C66.5155 31.1163 66.5133 31.1288 66.5112 31.1413C66.5053 31.1756 66.4995 31.2098 66.4864 31.2424C66.4737 31.2724 66.4537 31.2991 66.4338 31.326L66.4337 31.326L66.4337 31.3261C66.4255 31.3371 66.4173 31.3481 66.4096 31.3594C66.4005 31.3726 66.3927 31.3863 66.385 31.4001C66.3713 31.4244 66.3577 31.4485 66.3371 31.4692L63.9049 33.9207C63.765 34.0621 63.5798 34.1331 63.3954 34.1331C63.2124 34.1331 63.0301 34.0635 62.8901 33.925C62.6081 33.6458 62.6067 33.1916 62.8858 32.9102L64.1654 31.6199H52.174C51.9831 33.3667 51.0343 34.929 49.5495 35.9151L49.6334 36.4132C50.1559 36.1203 50.9482 35.8103 51.8352 35.9302C52.8163 36.0622 53.2971 36.9414 53.5174 37.5585C54.0399 37.2564 54.8559 36.9191 55.7767 37.0425C56.968 37.2033 57.4237 38.4657 57.5679 39.0226C58.0911 38.7283 58.887 38.4133 59.7812 38.5339C61.2532 38.7305 61.6019 40.6072 61.6285 40.7651C61.6288 40.7661 61.6291 40.7669 61.6293 40.7677C61.6295 40.7685 61.6296 40.7691 61.6297 40.7697C61.6299 40.7709 61.6299 40.7718 61.6299 40.773L62.9641 48.6328C62.9684 48.6551 62.9698 48.678 62.9698 48.701L62.9698 48.7015C62.9714 48.7842 63.0053 50.5748 62.443 51.6262C61.9622 52.5297 61.8208 53.3429 62.0153 54.1036C62.2521 55.048 62.2959 55.7406 62.2959 55.77C62.3103 56.009 62.1431 56.2193 61.9077 56.2595L51.4312 58.0378C51.3063 58.0594 51.1793 58.0285 51.0767 57.9539C50.974 57.8792 50.9051 57.7594 50.8886 57.6417C50.8406 57.2871 50.6547 56.2623 50.4006 55.7879C50.1301 55.2806 48.6596 53.3479 48.1156 52.6453C48.0948 52.6209 44.6227 48.5539 43.2139 47.2908C41.8332 46.0527 39.7761 44.7138 39.6913 44.6586L39.6888 44.657C39.5251 44.5508 39.4419 44.3534 39.4857 44.1625L39.4861 44.1606C39.5161 44.0316 40.0834 41.5902 41.953 41.4196C43.1041 41.3148 44.7339 42.2844 45.766 43.0006L44.6973 36.7024C42.3169 36.0579 40.6124 34.0434 40.3469 31.622H33.3798L34.6594 32.9124C34.9385 33.1937 34.9371 33.648 34.6551 33.9272C34.5151 34.0657 34.3328 34.1353 34.1498 34.1353C33.9654 34.1353 33.7802 34.0642 33.6403 33.9229L31.2081 31.4713C31.1868 31.4496 31.1727 31.4247 31.1586 31.3998C31.1513 31.3869 31.144 31.374 31.1356 31.3615C31.1273 31.3492 31.1185 31.3373 31.1097 31.3254C31.0903 31.2994 31.0712 31.2736 31.0588 31.2445C31.0457 31.2119 31.0399 31.1778 31.034 31.1435C31.0319 31.131 31.0298 31.1185 31.0273 31.106C31.0247 31.0943 31.0218 31.0826 31.0189 31.071C31.0111 31.04 31.0034 31.0092 31.0029 30.9768C31.0029 30.9679 31.0036 30.9595 31.0044 30.9509C31.0049 30.9451 31.0054 30.9392 31.0057 30.9331C31.0057 30.9276 31.0043 30.9227 31.0028 30.9178C31.0014 30.9132 31 30.9086 31 30.9036C31 30.6381 31.1507 30.4163 31.3646 30.2922L33.6252 27.8737C33.8972 27.5837 34.3508 27.5701 34.6393 27.8399C34.9285 28.1105 34.9443 28.5648 34.6737 28.8547L33.4286 30.1867H40.3619C40.7122 27.5077 42.8451 25.3855 45.5298 25.0554C45.5298 25.0554 45.8136 25 46.2604 25C46.7072 25 46.9659 25.0532 46.9659 25.0532ZM49.9081 43.6345L47.9187 31.9187C47.8785 31.6747 47.4702 29.5317 46.014 29.7793C44.7918 29.9867 44.8177 31.8067 44.9224 32.4275L47.1515 45.5665C47.1953 45.8213 47.0238 46.0631 46.7676 46.1069C46.5121 46.15 46.2717 45.9777 46.2279 45.7229L45.9911 44.3307C45.1342 43.6589 43.1003 42.2566 42.0382 42.3542C41.1382 42.4368 40.6688 43.5219 40.4894 44.0637C41.1303 44.49 42.6848 45.5586 43.8409 46.5949C45.2949 47.8996 48.6995 51.887 48.8423 52.0563C49.0619 52.3377 50.8705 54.6794 51.2278 55.349C51.4776 55.8176 51.6455 56.5525 51.7367 57.0369L61.3161 55.4107C61.2795 55.1437 61.2163 54.7677 61.1058 54.3342C60.8575 53.3489 61.029 52.2889 61.616 51.1865C61.9806 50.5062 62.0409 49.2338 62.0337 48.7572L60.7046 40.9289C60.7017 40.9081 60.4563 39.5718 59.6561 39.4642C58.8308 39.353 58.0894 39.7785 57.7486 40.0154L58.3205 43.3812C58.3629 43.6353 58.1914 43.8771 57.9366 43.9209C57.6811 43.964 57.4392 43.7917 57.3969 43.5377L56.7 39.4376C56.6972 39.4183 56.4517 38.082 55.6515 37.9743C54.8262 37.8638 54.0834 38.2887 53.7425 38.5255L54.5585 43.3288C54.6023 43.5836 54.4308 43.8247 54.176 43.8685C53.9191 43.9116 53.6787 43.74 53.6349 43.4853L52.7586 38.3267C52.7558 38.3059 52.5103 36.9696 51.7101 36.8619C50.8848 36.7514 50.1435 37.1756 49.8026 37.4124L50.8317 43.4781C50.8755 43.7329 50.704 43.9747 50.4492 44.0178C50.1937 44.0608 49.9518 43.8893 49.9081 43.6345ZM50.7801 30.9613C50.7815 32.2639 50.2261 33.4681 49.2773 34.3179L48.8446 31.7623C48.6343 30.5293 47.7709 28.5306 45.8576 28.8557C44.0814 29.1571 43.7721 31.2513 43.9989 32.5847L44.4237 35.0879C42.8133 34.376 41.7425 32.7821 41.7425 30.9613C41.7425 28.5206 43.6888 26.5305 46.1103 26.4494C46.1255 26.4525 46.1404 26.4566 46.1554 26.4607C46.1857 26.469 46.2161 26.4774 46.2488 26.4774C46.2844 26.4774 46.3173 26.4682 46.3502 26.4591C46.3644 26.4551 46.3786 26.4512 46.393 26.4479C48.823 26.5183 50.7801 28.5134 50.7801 30.9613Z" fill="white"/>
</svg>
