<svg width="100" height="100" viewBox="0 0 100 100" fill="none" xmlns="http://www.w3.org/2000/svg">
<path d="M50 100C77.6142 100 100 77.6142 100 50C100 22.3858 77.6142 0 50 0C22.3858 0 0 22.3858 0 50C0 77.6142 22.3858 100 50 100Z" fill="#2D2E39"/>
<path d="M21.2388 61H20.0137V56.728H15.3545V61H14.1357V51.7578H15.3545V55.7314H20.0137V51.7578H21.2388V61ZM27.4595 61C27.3918 60.8646 27.3368 60.6234 27.2944 60.2764C26.7485 60.8434 26.0968 61.127 25.3394 61.127C24.6623 61.127 24.1058 60.9365 23.6699 60.5557C23.2383 60.1706 23.0225 59.6839 23.0225 59.0957C23.0225 58.3805 23.2933 57.8262 23.835 57.4326C24.3809 57.0348 25.1468 56.8359 26.1328 56.8359H27.2754V56.2964C27.2754 55.8859 27.1527 55.5601 26.9072 55.3188C26.6618 55.0734 26.3 54.9507 25.8218 54.9507C25.4028 54.9507 25.0516 55.0565 24.7681 55.2681C24.4845 55.4797 24.3428 55.7357 24.3428 56.0361H23.1621C23.1621 55.6934 23.2827 55.3633 23.5239 55.0459C23.7694 54.7243 24.0994 54.4704 24.5142 54.2842C24.9331 54.098 25.3923 54.0049 25.8916 54.0049C26.6829 54.0049 27.3029 54.2038 27.7515 54.6016C28.2 54.9951 28.4328 55.5389 28.4497 56.2329V59.394C28.4497 60.0246 28.5301 60.526 28.6909 60.8984V61H27.4595ZM25.5107 60.105C25.8789 60.105 26.228 60.0098 26.5581 59.8193C26.8882 59.6289 27.1273 59.3813 27.2754 59.0767V57.6675H26.355C24.9162 57.6675 24.1968 58.0885 24.1968 58.9307C24.1968 59.2988 24.3195 59.5866 24.5649 59.7939C24.8104 60.0013 25.1257 60.105 25.5107 60.105ZM35.7686 58.0166H34.9434V61H33.769V58.0166H32.9438L31.0205 61H29.5352L31.9917 57.4453L29.77 54.1318H31.1919L32.9629 56.9756H33.769V54.1318H34.9434V56.9756H35.7432L37.5269 54.1318H38.9487L36.7207 57.4517L39.1772 61H37.6919L35.7686 58.0166ZM44.1982 59.4448L46.5342 54.1318H48.0005V61H46.8262V56.0044L44.6045 61H43.792L41.5259 55.8965V61H40.3516V54.1318H41.875L44.1982 59.4448ZM54.3354 54.1318H55.5098V61H54.3354V55.9917L51.168 61H49.9937V54.1318H51.168V59.1465L54.3354 54.1318ZM62.4985 55.084H60.1943V61H59.02V55.084H56.7603V54.1318H62.4985V55.084ZM65.9834 61.127C65.0524 61.127 64.2949 60.8223 63.7109 60.2129C63.127 59.5993 62.835 58.7804 62.835 57.7563V57.5405C62.835 56.8592 62.964 56.252 63.2222 55.7188C63.4845 55.1813 63.8485 54.7624 64.314 54.4619C64.7837 54.1572 65.2915 54.0049 65.8374 54.0049C66.7303 54.0049 67.4243 54.299 67.9194 54.8872C68.4146 55.4754 68.6621 56.3175 68.6621 57.4136V57.9023H64.0093C64.0262 58.5794 64.223 59.1274 64.5996 59.5464C64.9805 59.9611 65.4629 60.1685 66.0469 60.1685C66.4616 60.1685 66.8128 60.0838 67.1006 59.9146C67.3883 59.7453 67.6401 59.521 67.856 59.2417L68.5732 59.8003C67.9977 60.6847 67.1344 61.127 65.9834 61.127ZM65.8374 54.9697C65.3634 54.9697 64.9657 55.1432 64.644 55.4902C64.3224 55.833 64.1235 56.3154 64.0474 56.9375H67.4878V56.8486C67.4539 56.252 67.2931 55.7907 67.0054 55.4648C66.7176 55.1348 66.3283 54.9697 65.8374 54.9697ZM78.8628 61H77.6885V58.0674H74.5337V61H73.353V54.1318H74.5337V57.1089H77.6885V54.1318H78.8628V61ZM84.9946 61C84.9269 60.8646 84.8719 60.6234 84.8296 60.2764C84.2837 60.8434 83.632 61.127 82.8745 61.127C82.1974 61.127 81.641 60.9365 81.2051 60.5557C80.7734 60.1706 80.5576 59.6839 80.5576 59.0957C80.5576 58.3805 80.8285 57.8262 81.3701 57.4326C81.916 57.0348 82.682 56.8359 83.668 56.8359H84.8105V56.2964C84.8105 55.8859 84.6878 55.5601 84.4424 55.3188C84.1969 55.0734 83.8351 54.9507 83.3569 54.9507C82.938 54.9507 82.5868 55.0565 82.3032 55.2681C82.0197 55.4797 81.8779 55.7357 81.8779 56.0361H80.6973C80.6973 55.6934 80.8179 55.3633 81.0591 55.0459C81.3045 54.7243 81.6346 54.4704 82.0493 54.2842C82.4683 54.098 82.9274 54.0049 83.4268 54.0049C84.2181 54.0049 84.8381 54.2038 85.2866 54.6016C85.7352 54.9951 85.9679 55.5389 85.9849 56.2329V59.394C85.9849 60.0246 86.0653 60.526 86.2261 60.8984V61H84.9946ZM83.0459 60.105C83.4141 60.105 83.7632 60.0098 84.0933 59.8193C84.4233 59.6289 84.6624 59.3813 84.8105 59.0767V57.6675H83.8901C82.4513 57.6675 81.7319 58.0885 81.7319 58.9307C81.7319 59.2988 81.8547 59.5866 82.1001 59.7939C82.3455 60.0013 82.6608 60.105 83.0459 60.105ZM27.4976 67.9697C27.0786 67.9697 26.7147 68.103 26.4058 68.3696C26.1011 68.6362 25.9487 68.9515 25.9487 69.3154H24.8315C24.8315 68.9219 24.9564 68.5452 25.2061 68.1855C25.4557 67.8258 25.7879 67.5402 26.2026 67.3286C26.6174 67.1128 27.049 67.0049 27.4976 67.0049C28.3905 67.0049 29.112 67.3286 29.6621 67.9761C30.2165 68.6193 30.4937 69.4614 30.4937 70.5024V70.6992C30.4937 71.3424 30.3667 71.9307 30.1128 72.4639C29.8631 72.9928 29.5098 73.4033 29.0527 73.6953C28.5999 73.9831 28.0815 74.127 27.4976 74.127C26.7358 74.127 26.1011 73.89 25.5933 73.416C25.0854 72.9421 24.8315 72.3517 24.8315 71.645H25.9487C25.9487 72.0767 26.099 72.4406 26.3994 72.7368C26.6999 73.0288 27.0659 73.1748 27.4976 73.1748C28.0011 73.1748 28.4159 72.9801 28.7417 72.5908C29.0675 72.2015 29.2559 71.6662 29.3066 70.9849H26.7295V70.02H29.2939C29.2347 69.4022 29.0464 68.9071 28.729 68.5347C28.4116 68.158 28.0011 67.9697 27.4976 67.9697ZM37.6221 67.1318V74H36.4414V68.103H34.1055L33.9658 70.6738C33.8896 71.8545 33.6908 72.6987 33.3691 73.2065C33.0518 73.7144 32.5461 73.9788 31.8521 74H31.3823V72.9653L31.7188 72.9399C32.0996 72.8976 32.3726 72.6776 32.5376 72.2798C32.7026 71.882 32.8084 71.1457 32.855 70.0708L32.9819 67.1318H37.6221ZM42.3574 74.127C41.4264 74.127 40.6689 73.8223 40.085 73.2129C39.501 72.5993 39.209 71.7804 39.209 70.7563V70.5405C39.209 69.8592 39.3381 69.252 39.5962 68.7188C39.8586 68.1813 40.2225 67.7624 40.688 67.4619C41.1577 67.1572 41.6655 67.0049 42.2114 67.0049C43.1043 67.0049 43.7983 67.299 44.2935 67.8872C44.7886 68.4754 45.0361 69.3175 45.0361 70.4136V70.9023H40.3833C40.4002 71.5794 40.597 72.1274 40.9736 72.5464C41.3545 72.9611 41.8369 73.1685 42.4209 73.1685C42.8356 73.1685 43.1868 73.0838 43.4746 72.9146C43.7624 72.7453 44.0142 72.521 44.23 72.2417L44.9473 72.8003C44.3717 73.6847 43.5085 74.127 42.3574 74.127ZM42.2114 67.9697C41.7375 67.9697 41.3397 68.1432 41.0181 68.4902C40.6965 68.833 40.4976 69.3154 40.4214 69.9375H43.8618V69.8486C43.828 69.252 43.6672 68.7907 43.3794 68.4648C43.0916 68.1348 42.7023 67.9697 42.2114 67.9697ZM50.3555 72.4448L52.6914 67.1318H54.1577V74H52.9834V69.0044L50.7617 74H49.9492L47.6831 68.8965V74H46.5088V67.1318H48.0322L50.3555 72.4448ZM58.8994 74.127C57.9684 74.127 57.2109 73.8223 56.627 73.2129C56.043 72.5993 55.751 71.7804 55.751 70.7563V70.5405C55.751 69.8592 55.88 69.252 56.1382 68.7188C56.4006 68.1813 56.7645 67.7624 57.23 67.4619C57.6997 67.1572 58.2075 67.0049 58.7534 67.0049C59.6463 67.0049 60.3403 67.299 60.8354 67.8872C61.3306 68.4754 61.5781 69.3175 61.5781 70.4136V70.9023H56.9253C56.9422 71.5794 57.139 72.1274 57.5156 72.5464C57.8965 72.9611 58.3789 73.1685 58.9629 73.1685C59.3776 73.1685 59.7288 73.0838 60.0166 72.9146C60.3044 72.7453 60.5562 72.521 60.772 72.2417L61.4893 72.8003C60.9137 73.6847 60.0505 74.127 58.8994 74.127ZM58.7534 67.9697C58.2795 67.9697 57.8817 68.1432 57.5601 68.4902C57.2384 68.833 57.0396 69.3154 56.9634 69.9375H60.4038V69.8486C60.37 69.252 60.2091 68.7907 59.9214 68.4648C59.6336 68.1348 59.2443 67.9697 58.7534 67.9697ZM68.5542 74H67.3799V71.0674H64.2251V74H63.0444V67.1318H64.2251V70.1089H67.3799V67.1318H68.5542V74ZM75.5493 68.084H73.2451V74H72.0708V68.084H69.811V67.1318H75.5493V68.084Z" fill="white"/>
<path fill-rule="evenodd" clip-rule="evenodd" d="M38.9667 21.7141C38.5637 22.2134 38.3439 22.8284 38.3396 23.4861C38.2863 23.6848 38.2372 23.8877 38.1931 24.0939C37.8191 25.8459 37.8777 27.4887 38.5441 28.8709C39.1233 30.0723 40.1454 31.0429 41.4599 31.8091C40.7892 32.6877 40.8503 33.8301 41.4978 35.011C41.5326 35.0757 41.5752 35.1544 41.6352 35.2651C42.1405 36.1964 42.7137 37.2322 43.2732 38.209C43.9142 39.328 44.4408 40.1995 44.814 40.742C45.2089 41.3155 46.0674 41.948 47.2757 42.6543C47.6967 42.9005 48.1362 43.1404 48.5742 43.3674C48.7701 43.469 48.9473 43.5584 49.0987 43.6333L50.6487 46.4579C50.925 46.9614 51.5608 47.1476 52.0685 46.8736L63.4534 40.7305C63.9611 40.4565 64.1488 39.826 63.8725 39.3225L62.3127 36.4799C62.3274 36.0342 62.3367 35.4878 62.3313 34.9114C62.3216 33.8672 62.2654 33.0595 62.1376 32.5656C61.9382 31.7973 61.3338 30.537 60.4491 28.9315C59.9167 27.9653 59.3559 27.0093 59.0404 26.4935C58.2788 25.1041 56.5376 24.6012 55.106 25.3737C54.8283 25.5236 54.5819 25.7153 54.3728 25.9403C53.9148 25.448 53.3122 25.1302 52.6734 25.0217C52.7382 23.9058 52.558 22.8705 52.0458 22.0099C51.5168 21.1212 50.652 20.4499 49.5895 19.9628C49.2199 19.7934 48.852 19.6587 48.5024 19.5551C48.2917 19.4926 48.1329 19.4543 48.0427 19.4364L47.9752 19.772C48.0553 19.7879 48.2037 19.8238 48.4036 19.883C48.7382 19.9821 49.0909 20.1112 49.4447 20.2734C50.449 20.7339 51.2604 21.3637 51.7486 22.1839C52.2184 22.9732 52.388 23.937 52.3299 24.9838C51.8192 24.9578 51.298 25.0654 50.8192 25.3238C50.4688 25.5128 50.1727 25.7473 49.963 26.0215C48.8605 25.0643 47.894 24.9536 46.7075 25.5939C46.4592 25.7279 46.2359 25.8953 46.0421 26.09L43.8925 22.1727C43.1051 20.7378 41.3162 20.1827 39.8989 20.9474C39.5341 21.1443 39.2269 21.3978 38.9843 21.6926L38.9783 21.6897C38.9749 21.6966 38.9711 21.7047 38.9667 21.7141ZM52.1757 26.1441C51.904 26.1452 51.6313 26.2102 51.38 26.3458C50.9846 26.5592 50.7765 26.8194 50.8026 27.0307L51.0304 28.879L49.782 27.4881C48.7028 26.2857 48.1655 26.1318 47.2683 26.6159C46.9319 26.7974 46.6743 27.0823 46.5233 27.4312L46.0467 28.5328L42.8619 22.7288C42.3802 21.8511 41.3002 21.5159 40.4598 21.9694C39.5192 22.4769 39.2084 23.5526 39.8489 24.6575C40.4139 25.6322 42.9647 29.5245 47.4759 36.2941C47.6545 36.5621 47.5802 36.923 47.3099 37.1002C47.0396 37.2773 46.6756 37.2036 46.497 36.9356C45.4937 35.43 44.5877 34.0674 43.7788 32.8472C43.7661 32.843 43.7534 32.8388 43.7406 32.8345C43.347 32.703 42.9411 32.5459 42.5337 32.3614C42.0103 32.8917 42.0557 33.5928 42.5305 34.4587C42.5669 34.5262 42.609 34.6041 42.6685 34.7138C43.1699 35.638 43.7392 36.6666 44.2935 37.6343C44.9194 38.727 45.4333 39.5775 45.7832 40.0861C46.0464 40.4684 46.8131 41.0332 47.8716 41.652C48.2105 41.8501 48.5636 42.045 48.9184 42.2321C49.0112 42.0788 49.1452 41.9473 49.315 41.8556L60.6999 35.7125C60.8458 35.6338 61.0023 35.593 61.1579 35.5869C61.1599 35.3731 61.1601 35.1498 61.158 34.9221C61.1492 33.9724 61.0973 33.2267 61.0011 32.8553C60.8351 32.2154 60.255 31.0057 59.4195 29.4895C58.8964 28.5403 58.3441 27.5988 58.0234 27.0732C57.5588 26.2263 56.5309 25.9295 55.6668 26.3957C55.3303 26.5773 55.0724 26.8627 54.9213 27.2119L54.4446 28.3134L53.7817 27.1054C53.5056 26.6022 53.0328 26.2773 52.5212 26.1771C52.5146 26.2091 52.5079 26.2409 52.501 26.2725C52.4543 26.4855 52.4115 26.6419 52.3836 26.7289L52.0547 26.6254C52.0794 26.5481 52.1194 26.4019 52.1637 26.1998C52.1678 26.1813 52.1718 26.1627 52.1757 26.1441ZM43.4654 32.3743C43.3651 32.2229 43.2664 32.0737 43.1693 31.927C43.0444 31.9874 42.9319 32.0513 42.8312 32.1186C43.044 32.2114 43.256 32.2965 43.4654 32.3743ZM42.5224 30.9484C42.1889 31.1239 41.9126 31.3246 41.6906 31.5463C40.4036 30.8064 39.4089 29.8712 38.8555 28.7233C38.2598 27.4878 38.1784 26.0126 38.4779 24.4273C38.5588 24.6975 38.6761 24.969 38.8316 25.2374C39.2145 25.898 40.4424 27.7979 42.5224 30.9484ZM49.9901 42.8158C50.0578 42.8892 50.1048 42.9782 50.1278 43.0734L51.6191 45.7912L62.7817 39.768L61.1498 36.7941L49.9901 42.8158Z" fill="white"/>
<path d="M36.5147 25.2859L36.8333 25.4174C36.8019 25.4922 36.7492 25.6344 36.6873 25.8319C36.5837 26.1627 36.4951 26.525 36.4336 26.9066C36.2589 27.9901 36.3336 29.0091 36.7479 29.8684C37.1622 30.7278 37.9151 31.4252 38.8751 31.9707C39.2133 32.1629 39.5533 32.322 39.8779 32.4497C40.0718 32.526 40.2165 32.5746 40.295 32.5973L40.1982 32.9258C40.1099 32.9002 39.9551 32.8482 39.7507 32.7678C39.4115 32.6344 39.0569 32.4684 38.7036 32.2677C37.6879 31.6906 36.8854 30.9472 36.4365 30.0161C35.9876 29.085 35.908 27.9988 36.0928 26.8526C36.1571 26.4539 36.2495 26.0759 36.3577 25.7304C36.423 25.5222 36.4794 25.3701 36.5147 25.2859Z" fill="white"/>
<path d="M55.1093 25.2925L54.7804 25.189C54.8051 25.1117 54.8452 24.9655 54.8894 24.7634C54.9636 24.425 55.02 24.0564 55.0478 23.6709C55.1265 22.5764 54.9626 21.5677 54.4743 20.7475C53.9861 19.9273 53.1748 19.2975 52.1704 18.837C51.8166 18.6748 51.4639 18.5457 51.1293 18.4466C50.9295 18.3873 50.781 18.3515 50.7009 18.3356L50.7684 18C50.8587 18.0179 51.0174 18.0562 51.2281 18.1187C51.5777 18.2223 51.9456 18.357 52.3152 18.5264C53.3777 19.0135 54.2425 19.6848 54.7715 20.5735C55.3005 21.4623 55.4753 22.5374 55.392 23.6952C55.363 24.098 55.3041 24.4825 55.2267 24.8361C55.18 25.0491 55.1372 25.2055 55.1093 25.2925Z" fill="white"/>
</svg>
