<svg width="540" height="90" viewBox="0 0 540 90" fill="none" xmlns="http://www.w3.org/2000/svg">
<path fill-rule="evenodd" clip-rule="evenodd" d="M275.479 0H274.395V5.44H174.863V0.421484H173.779V5.44H141.517V0.0532182H140.433V5.44H40.9396V0.0810368H39.855V5.44H0V6.5328H39.855V83.4745H0V84.5673H39.855V89.8334H40.9396V84.5673H140.433V89.4938H141.517V84.5673H173.779V90.0005H174.863V84.5673H274.395V89.4945H275.479V84.5673H540V83.4745H275.479V6.5328H408.361V5.44H275.479V0ZM174.863 83.4745H274.395V6.86042L174.863 64.9343V83.4745ZM174.863 63.6715V6.5328H272.792L174.863 63.6715ZM173.779 64.3043L141.517 83.1277V25.7568L173.779 6.96085V64.3043ZM143.087 83.4745L173.779 65.567V83.4745H143.087ZM141.517 6.5328H172.347L141.517 24.4944V6.5328ZM140.433 6.5328V25.1263L40.9396 83.0929V6.5328H140.433ZM140.433 26.3886L42.4512 83.4745H140.433V26.3886Z" fill="#989795"/>
<path fill-rule="evenodd" clip-rule="evenodd" d="M335.087 16.6349C336.06 16.6349 336.755 16.4484 337.172 16.0754C337.588 15.7024 337.796 15.1633 337.796 14.4552C337.796 13.814 337.558 13.272 337.081 12.8291C336.604 12.3847 335.878 12.1632 334.904 12.1632C334.033 12.1632 333.304 12.3949 332.712 12.8568C332.124 13.3201 331.829 13.8796 331.829 14.5411H329.203L329.174 14.4552C329.119 13.1438 329.647 12.0758 330.762 11.2511C331.875 10.4249 333.256 10.0126 334.904 10.0126C336.683 10.0126 338.073 10.3972 339.075 11.1651C340.077 11.9344 340.577 13.0301 340.577 14.4552C340.577 15.1458 340.372 15.7767 339.96 16.3523C339.548 16.9278 338.972 17.3809 338.232 17.7102C339.083 18.0119 339.734 18.4635 340.184 19.0609C340.634 19.6613 340.858 20.3942 340.858 21.2626C340.858 22.6963 340.313 23.8197 339.222 24.6298C338.131 25.4414 336.692 25.8465 334.904 25.8465C333.247 25.8465 331.826 25.4443 330.642 24.6371C329.457 23.8299 328.889 22.6628 328.935 21.1343L328.964 21.0498H331.59C331.59 21.7667 331.898 22.3889 332.517 22.9178C333.135 23.4467 333.93 23.709 334.904 23.709C335.905 23.709 336.683 23.4759 337.235 23.0096C337.788 22.5433 338.064 21.9605 338.064 21.2626C338.064 20.4408 337.823 19.8419 337.341 19.4645C336.858 19.0886 336.108 18.8992 335.087 18.8992H332.446V16.6349H335.087ZM349.114 23.5405C350.03 23.5405 350.869 23.319 351.627 22.876C352.386 22.4316 352.928 21.8983 353.256 21.2762V18.7584H350.308C349.174 18.7584 348.278 19.0206 347.618 19.551C346.958 20.0785 346.628 20.7196 346.628 21.4743C346.628 22.1446 346.833 22.656 347.245 23.0101C347.657 23.3642 348.281 23.5405 349.114 23.5405ZM353.372 24.4593C353.418 24.7901 353.485 25.1617 353.569 25.5769H357.191V23.7949L356.067 23.639C356.048 23.4496 356.037 23.2616 356.033 23.0737C356.028 22.8843 356.025 22.6905 356.025 22.4923V15.121C356.025 13.4702 355.492 12.2011 354.425 11.3137C353.357 10.4278 351.962 9.9834 350.24 9.9834C349.087 9.9834 348.022 10.1524 347.038 10.4861C346.055 10.8212 345.216 11.2671 344.524 11.8237V14.7946H346.658L346.953 13.1817C347.281 12.8713 347.709 12.6251 348.239 12.4458C348.768 12.2666 349.378 12.1763 350.072 12.1763C351.073 12.1763 351.855 12.4386 352.416 12.9616C352.979 13.4862 353.259 14.1958 353.259 15.0919V16.8753H350.409C348.377 16.8753 346.778 17.2687 345.613 18.0555C344.447 18.8438 343.864 19.9643 343.864 21.417C343.864 22.8333 344.276 23.929 345.101 24.7071C345.923 25.4851 347.127 25.8756 348.708 25.8756C349.617 25.8756 350.471 25.6454 351.272 25.1893C352.072 24.7304 352.74 24.1577 353.274 23.4685C353.292 23.7993 353.324 24.1286 353.372 24.4593ZM364.662 23.4258V18.8695H368.847C369.877 18.8695 370.655 19.0677 371.178 19.464C371.703 19.8603 371.965 20.4213 371.965 21.1469C371.965 21.8827 371.703 22.4481 371.178 22.84C370.655 23.2305 369.877 23.4258 368.847 23.4258H364.662ZM364.662 16.734H367.893C369.063 16.734 369.945 16.5592 370.539 16.211C371.135 15.8613 371.431 15.3323 371.431 14.6257C371.431 13.8986 371.135 13.3522 370.539 12.9836C369.945 12.6164 369.058 12.4313 367.878 12.4313H364.662V16.734ZM372.538 11.3214C371.435 10.6191 369.879 10.2679 367.876 10.2679H361.894H359.605V12.0645L361.894 12.4608V23.399L359.605 23.7953V25.5788H368.845C370.709 25.5788 372.158 25.2101 373.192 24.4743C374.226 23.7385 374.743 22.6544 374.743 21.2192C374.743 20.3901 374.477 19.6514 373.942 19.0059C373.41 18.359 372.67 17.919 371.724 17.6829C372.511 17.3886 373.119 16.9617 373.549 16.4022C373.98 15.8397 374.195 15.2001 374.195 14.4832C374.195 13.0786 373.643 12.0251 372.538 11.3214ZM381.142 22.1146C380.464 21.0567 380.124 19.7177 380.124 18.0945V17.7827C380.124 16.1799 380.461 14.8453 381.134 13.7787C381.81 12.7136 382.81 12.1788 384.141 12.1788C385.47 12.1788 386.476 12.7136 387.16 13.7787C387.843 14.8453 388.185 16.1799 388.185 17.7827V18.0945C388.185 19.7177 387.843 21.0567 387.16 22.1146C386.476 23.1695 385.48 23.6984 384.168 23.6984C382.829 23.6984 381.82 23.1695 381.142 22.1146ZM377.356 17.7798C377.356 15.5156 377.965 13.6505 379.183 12.1832C380.399 10.7174 382.051 9.98453 384.14 9.98453C386.236 9.98453 387.895 10.716 389.117 12.176C390.339 13.6388 390.95 15.5083 390.95 17.7798V18.0916C390.95 20.3749 390.341 22.2428 389.124 23.6955C387.906 25.1482 386.255 25.8753 384.167 25.8753C382.06 25.8753 380.399 25.1468 379.183 23.6882C377.965 22.2312 377.356 20.3661 377.356 18.0916V17.7798ZM398.716 16.0265C398.614 17.7255 398.372 19.1723 397.993 20.37C397.614 21.5692 397.124 22.579 396.526 23.4007H403.336V12.7438H398.842L398.716 16.0265ZM395.122 20.5621C394.71 21.5471 394.116 22.4927 393.338 23.4004H392.145L392.412 30.0782H394.896V25.5788H405.36V30.0782H407.844L408.126 23.4004H406.103V12.4608L408.392 12.0645V10.2679H406.103H393.886V12.0645L396.091 12.4462L395.951 16.0262C395.81 18.0632 395.534 19.5771 395.122 20.5621ZM338.182 49.8333C337.485 50.4045 336.678 50.6886 335.76 50.6886C334.299 50.6886 333.26 50.1684 332.642 49.1252C332.025 48.0834 331.715 46.7779 331.715 45.213V44.6185C331.715 43.09 332.026 41.8005 332.65 40.7485C333.273 39.6965 334.31 39.1705 335.76 39.1705C336.406 39.1705 336.986 39.2696 337.502 39.4678C338.017 39.6659 338.438 39.9253 338.766 40.2458L339.369 42.6514H341.574L341.449 39.255C340.811 38.5483 340.008 37.9917 339.039 37.5867C338.071 37.1802 336.977 36.9776 335.76 36.9776C333.561 36.9776 331.874 37.7062 330.705 39.1632C329.535 40.6218 328.949 42.4402 328.949 44.6185V45.213C328.949 47.4117 329.532 49.2359 330.697 50.6886C331.863 52.1413 333.55 52.8684 335.76 52.8684C337.371 52.8684 338.782 52.357 339.994 51.3326C341.207 50.3098 341.788 49.1383 341.742 47.8167L341.715 47.7322H339.229C339.229 48.5613 338.88 49.2622 338.182 49.8333ZM358.664 37.2596V41.8158H356.291L356.08 39.4233H352.822V50.3921L355.111 50.787V52.5704H347.767V50.787L350.056 50.3921V39.4233H346.854L346.643 41.8158H344.283V37.2596H358.664ZM372.202 40.9115C372.876 42.0233 373.213 43.4527 373.213 45.1982V45.4955C373.213 47.0327 372.876 48.2828 372.202 49.2445C371.527 50.2076 370.535 50.6885 369.225 50.6885C368.411 50.6885 367.724 50.5151 367.167 50.1712C366.611 49.8273 366.158 49.3392 365.812 48.7068V41.2496C366.158 40.6274 366.614 40.1364 367.175 39.7779C367.736 39.4195 368.411 39.2403 369.196 39.2403C370.526 39.2403 371.527 39.7969 372.202 40.9115ZM360.758 56.6582L363.047 56.2633V39.4517L360.758 39.0554V37.2588H365.42L365.673 39.1268C366.178 38.4274 366.794 37.8941 367.52 37.5269C368.244 37.1583 369.086 36.9747 370.04 36.9747C371.921 36.9747 373.385 37.728 374.429 39.2317C375.473 40.7368 375.995 42.7257 375.995 45.1969V45.4941C375.995 47.7016 375.47 49.4821 374.422 50.8358C373.373 52.1894 371.926 52.8669 370.082 52.8669C369.147 52.8669 368.325 52.7081 367.618 52.3919C366.911 52.0772 366.31 51.6065 365.814 50.9844V56.2633L368.103 56.6582V58.4562H360.758V56.6582ZM381.29 45.0833C381.29 46.7064 381.63 48.0455 382.308 49.1033C382.986 50.1582 383.995 50.6871 385.334 50.6871C386.646 50.6871 387.642 50.1582 388.326 49.1033C389.009 48.0455 389.351 46.7064 389.351 45.0833V44.7715C389.351 43.1687 389.009 41.834 388.326 40.7674C387.642 39.7023 386.636 39.1676 385.307 39.1676C383.976 39.1676 382.976 39.7023 382.301 40.7674C381.627 41.834 381.29 43.1687 381.29 44.7715V45.0833ZM380.346 39.1763C379.128 40.6436 378.519 42.5087 378.519 44.7729V45.0847C378.519 47.3592 379.128 49.2243 380.346 50.6813C381.562 52.1399 383.223 52.8684 385.33 52.8684C387.418 52.8684 389.07 52.1413 390.287 50.6886C391.505 49.2359 392.113 47.368 392.113 45.0847V44.7729C392.113 42.5014 391.502 40.632 390.28 39.1691C389.058 37.7091 387.399 36.9776 385.303 36.9776C383.215 36.9776 381.562 37.7105 380.346 39.1763ZM402.087 39.0562V37.2596H399.798H394.756V39.0562L397.045 39.4525V50.3921L394.756 50.787V52.5704H399.798L406.496 41.7022L406.58 41.7299V50.3921L404.291 50.787V52.5704H411.637V50.787L409.348 50.3921V39.4525L411.637 39.0562V37.2596H409.348H406.58L399.882 48.1264L399.798 48.0973V39.4525L402.087 39.0562ZM428.474 37.2596V41.8158H426.101L425.89 39.4233H422.632V50.3921L424.921 50.787V52.5704H417.577V50.787L419.866 50.3921V39.4233H416.664L416.453 41.8158H414.093V37.2596H428.474ZM433.924 40.3507C434.579 39.5624 435.37 39.1676 436.297 39.1676C437.439 39.1676 438.3 39.5362 438.881 40.272C439.461 41.0079 439.752 41.9229 439.752 43.0171V43.3858H432.744L432.715 43.3144C432.866 42.1254 433.268 41.1375 433.924 40.3507ZM436.721 52.8684C434.604 52.8684 432.921 52.1588 431.671 50.7382C430.422 49.319 429.796 47.4772 429.796 45.213V44.5908C429.796 42.4125 430.441 40.597 431.728 39.1487C433.015 37.7018 434.539 36.9776 436.299 36.9776C438.339 36.9776 439.886 37.6013 440.939 38.8456C441.993 40.0914 442.519 41.751 442.519 43.8258V45.567H432.66L432.62 45.637C432.647 47.1086 433.016 48.3194 433.729 49.268C434.44 50.2151 435.437 50.6886 436.721 50.6886C437.655 50.6886 438.478 50.5546 439.185 50.2865C439.89 50.0169 440.502 49.6468 441.017 49.1747L442.099 50.9859C441.555 51.5162 440.836 51.9606 439.943 52.3234C439.049 52.6863 437.975 52.8684 436.721 52.8684ZM451 39.4671V43.7975C451 46.8165 450.604 49.0327 449.813 50.4475C449.022 51.8638 447.667 52.5704 445.748 52.5704H444.962L445.004 50.1925L445.579 50.1794C446.571 50.1794 447.262 49.6942 447.651 48.7223C448.039 47.7505 448.234 46.1098 448.234 43.7975V39.4525L445.945 39.0576V37.2596H458.92H461.209V39.0576L458.92 39.4525V50.3921L461.209 50.7885V52.5704H453.865V50.7885L456.154 50.3921V39.4671H451ZM468.889 50.3883V44.6999H472.653C473.645 44.6999 474.38 44.987 474.857 45.5625C475.336 46.1381 475.574 46.8127 475.574 47.5849C475.574 48.3878 475.337 49.0551 474.864 49.5884C474.393 50.1217 473.654 50.3883 472.653 50.3883H468.889ZM471.178 37.2606V39.0571L468.89 39.4518V37.2606H471.178ZM468.889 39.452L468.89 39.4518V42.5235H472.654C474.452 42.5235 475.851 42.9825 476.853 43.9033C477.854 44.8228 478.356 46.019 478.356 47.4906C478.356 48.9725 477.853 50.1891 476.846 51.1421C475.84 52.0935 474.441 52.57 472.654 52.57H463.835V50.788L466.124 50.3917V39.452L463.835 39.0571V37.2606H466.124H468.889V39.452ZM480.856 37.2606V39.0571L483.145 39.452V50.3917L480.856 50.788V52.57H488.2V50.788L485.911 50.3917V46.0613H492.666V50.3917L490.377 50.788V52.57H497.735V50.788L495.446 50.3917V39.452L497.735 39.0571V37.2606H495.446H492.666H490.377V39.0571L492.666 39.452V43.8829H485.911V39.452L488.2 39.0571V37.2606H480.856ZM515.276 50.788L517.565 50.3931V39.4535L515.276 39.0571V37.2606H520.333V50.3931L522.622 50.788V52.5714H515.276V50.788ZM505.502 50.3898V44.6999H509.266C510.257 44.6999 510.992 44.987 511.469 45.5625C511.948 46.1395 512.186 46.8127 512.186 47.5864C512.186 48.3878 511.949 49.0551 511.476 49.5898C511.004 50.1217 510.266 50.3898 509.266 50.3898H505.502ZM507.791 37.2606V39.0571L505.502 39.4533V37.2606H507.791ZM505.502 39.4535L505.502 39.4533V42.5235H509.266C511.064 42.5235 512.464 42.9839 513.466 43.9033C514.466 44.8228 514.968 46.0205 514.968 47.4906C514.968 48.9725 514.463 50.1891 513.458 51.1421C512.451 52.0935 511.054 52.5714 509.266 52.5714H500.447V50.788L502.736 50.3931V39.4535L500.447 39.0571V37.2606H502.736H505.502V39.4535ZM525.903 50.4617L524.275 50.7881V52.5715H530.257V50.7881L528.895 50.6336L531.872 46.784L534.85 50.6336L533.501 50.7881V52.5715H539.457V50.7881L537.813 50.4617L533.347 44.8301L537.685 39.3836L539.315 39.0572V37.2607H533.318V39.0572L534.68 39.2131L531.83 42.9068L528.993 39.2262L530.37 39.0572V37.2607H524.415V39.0572L526.045 39.3836L530.384 44.8301L525.903 50.4617ZM334.694 66.4578V70.7882C334.694 73.8073 334.298 76.0235 333.507 77.4383C332.716 78.8546 331.361 79.5612 329.442 79.5612H328.656L328.698 77.1833L329.273 77.1702C330.265 77.1702 330.956 76.685 331.345 75.7131C331.733 74.7413 331.928 73.1006 331.928 70.7882V66.4433L329.639 66.0484V64.2504H342.614H344.903V66.0484L342.614 66.4433V77.3829L344.903 77.7793V79.5612H337.559V77.7793L339.848 77.3829V66.4578H334.694ZM351.559 67.3425C352.214 66.5542 353.005 66.1594 353.932 66.1594C355.074 66.1594 355.934 66.528 356.516 67.2638C357.096 67.9996 357.386 68.9147 357.386 70.0089V70.3776H350.379L350.35 70.3062C350.5 69.1172 350.902 68.1293 351.559 67.3425ZM354.355 79.8571C352.238 79.8571 350.555 79.1475 349.306 77.7269C348.057 76.3077 347.43 74.466 347.43 72.2017V71.5795C347.43 69.4012 348.075 67.5857 349.362 66.1374C350.649 64.6905 352.173 63.9664 353.933 63.9664C355.974 63.9664 357.521 64.59 358.573 65.8343C359.628 67.0801 360.154 68.7397 360.154 70.8146V72.5558H350.295L350.255 72.6257C350.282 74.0974 350.651 75.3082 351.364 76.2567C352.075 77.2038 353.071 77.6774 354.355 77.6774C355.29 77.6774 356.112 77.5433 356.819 77.2752C357.525 77.0057 358.137 76.6356 358.652 76.1635L359.733 77.9746C359.189 78.505 358.471 78.9494 357.577 79.3122C356.684 79.675 355.609 79.8571 354.355 79.8571ZM369.702 77.6774C370.621 77.6774 371.428 77.3932 372.125 76.8221C372.823 76.2509 373.171 75.55 373.171 74.721H375.657L375.685 74.8055C375.731 76.1271 375.15 77.2985 373.936 78.3214C372.725 79.3457 371.313 79.8571 369.702 79.8571C367.493 79.8571 365.805 79.1301 364.64 77.6774C363.474 76.2247 362.892 74.4004 362.892 72.2017V71.6072C362.892 69.4289 363.477 67.6105 364.647 66.152C365.817 64.6949 367.503 63.9664 369.702 63.9664C370.92 63.9664 372.013 64.1689 372.982 64.5754C373.951 64.9805 374.753 65.5371 375.391 66.2438L375.517 69.6402H373.312L372.709 67.2346C372.38 66.914 371.96 66.6547 371.445 66.4565C370.929 66.2583 370.349 66.1593 369.702 66.1593C368.252 66.1593 367.215 66.6853 366.592 67.7373C365.969 68.7893 365.658 70.0788 365.658 71.6072V72.2017C365.658 73.7666 365.967 75.0721 366.585 76.1139C367.202 77.1572 368.242 77.6774 369.702 77.6774ZM380.221 66.1651C379.003 67.6324 378.394 69.4974 378.394 71.7617V72.0735C378.394 74.348 379.003 76.213 380.221 77.6701C381.437 79.1286 383.098 79.8571 385.205 79.8571C387.293 79.8571 388.945 79.1301 390.162 77.6774C391.38 76.2247 391.988 74.3567 391.988 72.0735V71.7617C391.988 69.4901 391.377 67.6207 390.155 66.1578C388.933 64.6978 387.274 63.9664 385.178 63.9664C383.09 63.9664 381.437 64.6993 380.221 66.1651ZM381.165 72.074C381.165 73.6972 381.504 75.0362 382.183 76.094C382.861 77.1489 383.87 77.6779 385.209 77.6779C386.521 77.6779 387.517 77.1489 388.201 76.094C388.883 75.0362 389.226 73.6972 389.226 72.074V71.7622C389.226 70.1594 388.883 68.8247 388.201 67.7581C387.517 66.693 386.51 66.1583 385.182 66.1583C383.851 66.1583 382.851 66.693 382.175 67.7581C381.501 68.8247 381.165 70.1594 381.165 71.7622V72.074ZM407.564 65.3048C406.461 64.6025 404.905 64.2513 402.902 64.2513H396.92H394.631V66.0479L396.92 66.4442V77.3824L394.631 77.7787V79.5621H403.871C405.735 79.5621 407.184 79.1935 408.218 78.4577C409.252 77.7219 409.769 76.6378 409.769 75.2026C409.769 74.3735 409.503 73.6348 408.968 72.9893C408.436 72.3424 407.696 71.9024 406.75 71.6663C407.537 71.372 408.145 70.9451 408.575 70.3855C409.006 69.8231 409.221 69.1835 409.221 68.4666C409.221 67.062 408.669 66.0085 407.564 65.3048ZM399.685 72.8529V77.4092H403.87C404.9 77.4092 405.677 77.2139 406.201 76.8234C406.726 76.4315 406.988 75.8661 406.988 75.1303C406.988 74.4047 406.726 73.8437 406.201 73.4474C405.677 73.0511 404.9 72.8529 403.87 72.8529H399.685ZM402.916 70.7174H399.685V66.4147H402.901C404.081 66.4147 404.967 66.5998 405.562 66.9669C406.158 67.3356 406.454 67.882 406.454 68.6091C406.454 69.3157 406.158 69.8447 405.562 70.1943C404.967 70.5426 404.085 70.7174 402.916 70.7174Z" fill="#48423B"/>
<path fill-rule="evenodd" clip-rule="evenodd" d="M308.453 41.1638L301.445 45.417L308.453 49.3948V64.4332L274.919 83.9389L241.529 64.5162L256.628 55.6165L274.919 66.2574L293.25 55.5873V52.918H269.33V37.2793H293.25V34.2559L274.919 23.5931L256.663 34.2151L241.383 25.5718V25.4173L274.919 5.9043L308.453 25.4173V41.1638ZM73.9499 64.5166V64.5094L58.7465 55.6504V55.6722L40.4154 66.3409L22.0828 55.6722V34.3393L40.4154 23.678L58.7118 34.3175L73.9499 25.5154V25.5022L40.4154 5.98775L6.88086 25.5022V64.5166L40.4154 84.0238L73.9499 64.5166ZM73.9833 25.5887L107.516 6.08004L141.05 25.5887V64.6046L107.516 84.1132L73.9833 64.6046V25.5887ZM125.851 55.7667L107.515 66.4325L89.1813 55.7667V34.4324L107.515 23.7667L125.851 34.4324V55.7667ZM174.248 25.5887L207.78 6.08004L241.313 25.5887V64.6046L207.78 84.1132L174.248 64.6046V54.7213H161.211L161.214 72.362L147.028 80.5172V21.9315L161.205 13.6145L161.208 35.4734H174.248V25.5887ZM226.113 55.7667L207.777 66.4325L189.443 55.7667V34.4324L207.777 23.7667L226.113 34.4324V55.7667Z" fill="#003594"/>
</svg>
